<svg xmlns="http://www.w3.org/2000/svg" width="100" height="78" viewBox="0 0 100 78" fill="none"><path d="M98.599 77.1421C97.8322 77.1421 97.2054 76.5154 97.2054 75.7485V44.9566C97.2054 38.9324 92.302 34.0364 86.2852 34.0364H71.8183V56.8796C71.8183 61.5323 68.0357 65.315 63.383 65.315C58.7303 65.315 54.9476 61.5323 54.9476 56.8796V44.964C54.9476 37.4061 61.0972 31.2566 68.6551 31.2566H68.9205C68.1463 25.9845 63.5968 21.929 58.1109 21.929H42.4495C36.971 21.929 32.4141 25.9919 31.6399 31.2566H32.1855C39.7434 31.2566 45.8929 37.4061 45.8929 44.964V56.8796C45.8929 61.5323 42.1103 65.315 37.4576 65.315H37.1774C32.5247 65.315 28.7421 61.5323 28.7421 56.8796V34.0364H13.7074C7.68323 34.0364 2.7872 38.9398 2.7872 44.9566V75.7485C2.7872 76.5154 2.16045 77.1421 1.3936 77.1421C0.626751 77.1421 0 76.5154 0 75.7485V44.9566C0 37.3987 6.14953 31.2492 13.7074 31.2492H28.8306C29.6195 24.436 35.4299 19.1345 42.4495 19.1345H58.1109C65.1305 19.1345 70.9335 24.436 71.7298 31.2492H86.2926C93.8505 31.2492 100 37.3987 100 44.9566V75.7485C100 76.5154 99.3733 77.1421 98.6064 77.1421H98.599ZM68.6477 34.029C62.6235 34.029 57.7201 38.9324 57.7201 44.9492V56.8649C57.7201 59.9839 60.2566 62.513 63.3682 62.513C66.4799 62.513 69.0164 59.9765 69.0164 56.8649V34.0216H68.6403L68.6477 34.029ZM31.5145 34.029V56.8723C31.5145 59.9913 34.051 62.5204 37.1627 62.5204H37.4428C40.5619 62.5204 43.091 59.9839 43.091 56.8723V44.9566C43.091 38.9324 38.1876 34.0364 32.1634 34.0364H31.4998L31.5145 34.029Z" fill="#95805A"></path><circle cx="50.5" cy="7.5" r="7.5" fill="url(#paint0_linear_31_1092)"></circle><circle cx="81.5" cy="19.5" r="7.5" fill="url(#paint1_linear_31_1092)"></circle><circle cx="21.5" cy="19.5" r="7.5" fill="url(#paint2_linear_31_1092)"></circle><defs><linearGradient id="paint0_linear_31_1092" x1="43" y1="9.21875" x2="58" y2="9.21875" gradientUnits="userSpaceOnUse"><stop stop-color="#AA8017"></stop><stop offset="1" stop-color="#7F5501"></stop></linearGradient><linearGradient id="paint1_linear_31_1092" x1="74" y1="21.2188" x2="89" y2="21.2188" gradientUnits="userSpaceOnUse"><stop stop-color="#AA8017"></stop><stop offset="1" stop-color="#7F5501"></stop></linearGradient><linearGradient id="paint2_linear_31_1092" x1="14" y1="21.2188" x2="29" y2="21.2188" gradientUnits="userSpaceOnUse"><stop stop-color="#AA8017"></stop><stop offset="1" stop-color="#7F5501"></stop></linearGradient></defs></svg>