<svg xmlns="http://www.w3.org/2000/svg" width="82" height="72" viewBox="0 0 82 72" fill="none"><path d="M60.244 20.9795L62.6288 25.8135C62.6771 25.9102 62.7657 25.9746 62.8705 25.9907L68.204 26.7642C68.4698 26.8044 68.5746 27.1267 68.3812 27.312L64.5221 31.0745C64.4496 31.147 64.4093 31.2517 64.4254 31.3564L65.3358 36.6658C65.3841 36.9316 65.1022 37.1331 64.8685 37.0041L60.099 34.4985C60.0023 34.4502 59.8895 34.4502 59.8009 34.4985L55.0314 37.0041C54.7977 37.125 54.5157 36.9316 54.5641 36.6658L55.4745 31.3564C55.4906 31.2517 55.4584 31.147 55.3778 31.0745L51.5187 27.312C51.3253 27.1267 51.43 26.8044 51.6959 26.7642L57.0294 25.9907C57.1341 25.9746 57.2228 25.9102 57.2711 25.8135L59.6559 20.9795C59.7767 20.7378 60.1151 20.7378 60.2359 20.9795H60.244Z" fill="url(#paint0_linear_31_500)"></path><path d="M79.6602 62.1409C79.5394 62.1409 79.4105 62.1248 79.2896 62.1006C76.2845 61.4963 68.8563 59.9011 64.8199 58.0803C63.3053 57.3955 61.9276 56.9524 60.6144 56.7107C56.5296 55.9695 48.9806 55.5586 44.2997 61.0693C43.8646 61.5769 43.1073 61.6414 42.5997 61.2063C42.0921 60.7712 42.0277 60.0139 42.4627 59.5063C47.9252 53.0691 56.4491 53.4961 61.0494 54.334C62.556 54.6079 64.119 55.1155 65.8109 55.8809C69.4042 57.5002 76.2523 59.0149 79.1043 59.603V8.67701C74.9793 8.07277 65.7142 5.09987 60.421 3.32741C58.0685 2.54591 55.7723 2.27199 53.589 2.52174C45.2906 3.46437 42.1083 10.6187 41.9794 10.9168L40.9562 13.2854L39.788 10.9812C39.6107 10.6267 35.2762 2.30421 26.0836 2.52979C25.1249 2.55396 24.0856 2.73927 22.9979 3.06959C18.4379 4.47145 7.58557 7.74244 2.88855 8.54005V59.2405C6.08704 58.3865 13.7489 56.3159 16.6009 55.2524C16.7701 55.196 20.3795 53.9231 24.8832 53.7458C31.0143 53.5041 35.8563 55.4136 38.8695 59.2808C39.2804 59.8044 39.1837 60.5698 38.66 60.9807C38.1363 61.3916 37.371 61.2949 36.9681 60.7712C30.829 52.8999 17.5677 57.4761 17.4308 57.5244C14.2565 58.7087 5.4425 61.0613 2.81604 61.7541C2.25207 61.9072 1.66394 61.7864 1.19666 61.4319C0.729373 61.0774 0.463501 60.5295 0.463501 59.9495V8.07277C0.463501 7.1382 1.14026 6.3567 2.06677 6.21974C6.42541 5.59132 18.6312 1.87721 22.2728 0.757336C23.5699 0.354504 24.8268 0.136977 26.0111 0.104751C33.9469 -0.104722 38.7648 5.1482 40.8031 8.04054C42.495 5.39796 46.3622 0.894301 53.307 0.104751C55.8448 -0.185288 58.4955 0.12892 61.1783 1.02321C65.545 2.48146 76.1153 5.91358 79.8536 6.32447C80.7962 6.42921 81.5133 7.22682 81.5133 8.18556V60.2556C81.5133 60.8196 81.2635 61.3513 80.8285 61.7058C80.4901 61.9797 80.0711 62.1328 79.6441 62.1328L79.6602 62.1409Z" fill="#95805A"></path><path d="M41.0046 52.4488C40.3359 52.4488 39.7961 51.909 39.7961 51.2403V10.9249C39.7961 10.2562 40.3359 9.71637 41.0046 9.71637C41.6733 9.71637 42.2131 10.2562 42.2131 10.9249V51.2403C42.2131 51.909 41.6733 52.4488 41.0046 52.4488Z" fill="#95805A"></path><path d="M80.8043 71.5752C80.8043 71.5752 80.7399 71.5752 80.7077 71.5752C76.204 71.2288 62.2177 66.3384 60.9608 65.8953C51.8407 63.8973 46.9262 68.1512 45.6371 69.5047C45.0893 70.0767 44.3158 70.407 43.5102 70.407H39.2401C38.4586 70.407 37.7094 70.1009 37.1776 69.5691C30.5954 62.9305 17.2375 67.273 17.1086 67.3133C9.40642 70.0042 1.51091 71.5027 1.43035 71.5188C0.769704 71.6397 0.141286 71.2127 0.0204365 70.552C-0.100413 69.8995 0.326586 69.263 0.987231 69.1421C1.0678 69.126 8.78606 67.6597 16.3271 65.0252C16.9474 64.8157 31.2721 60.1751 38.8937 67.8692C38.9743 67.9498 39.1032 67.99 39.2401 67.99H43.5102C43.6552 67.99 43.7922 67.9336 43.8808 67.837C45.3954 66.2498 51.1479 61.2386 61.549 63.5508L61.6859 63.5911C61.831 63.6395 76.5827 68.8279 80.8849 69.1583C81.5536 69.2066 82.0451 69.7867 81.9967 70.4554C81.9484 71.0918 81.4166 71.5752 80.7963 71.5752H80.8043Z" fill="#95805A"></path><defs><linearGradient id="paint0_linear_31_500" x1="51.4193" y1="30.7827" x2="68.4806" y2="30.7827" gradientUnits="userSpaceOnUse"><stop stop-color="#AA8017"></stop><stop offset="1" stop-color="#7F5501"></stop></linearGradient></defs></svg>