<svg xmlns="http://www.w3.org/2000/svg" width="54" height="81" viewBox="0 0 54 81" fill="none"><path d="M27.456 1.06601L30.979 8.20723C31.0504 8.35006 31.1813 8.44527 31.336 8.46908L39.2152 9.61168C39.608 9.67119 39.7627 10.1473 39.477 10.421L33.776 15.9793C33.6688 16.0864 33.6093 16.2411 33.6332 16.3958L34.9781 24.2393C35.0495 24.632 34.6329 24.9296 34.2877 24.7392L27.2417 21.0376C27.0989 20.9662 26.9323 20.9662 26.8014 21.0376L19.7554 24.7392C19.4102 24.9177 18.9936 24.632 19.0651 24.2393L20.41 16.3958C20.4338 16.2411 20.3862 16.0864 20.2672 15.9793L14.5661 10.421C14.2804 10.1473 14.4352 9.67119 14.8279 9.61168L22.7071 8.46908C22.8618 8.44527 22.9927 8.35006 23.0641 8.20723L26.5871 1.06601C26.7657 0.708953 27.2655 0.708953 27.4441 1.06601H27.456Z" fill="url(#paint0_linear_31_511)"></path><path d="M47.0837 80.7908H46.2948C42.4781 80.7908 39.3785 77.6912 39.3785 73.8745V47.9781C39.3785 47.1972 40.0159 46.5597 40.7968 46.5597C41.5777 46.5597 42.2151 47.1972 42.2151 47.9781V73.8745C42.2151 76.1215 44.0478 77.9541 46.2948 77.9541H47.0837C49.3307 77.9541 51.1633 76.1215 51.1633 73.8745V40.0577C51.1633 35.7231 47.4183 32.1932 42.8048 32.1932H11.1952C6.58964 32.1932 2.83665 35.7231 2.83665 40.0577V73.8745C2.83665 76.1215 4.66932 77.9541 6.91634 77.9541C9.16335 77.9541 10.996 76.1215 10.996 73.8745V47.9781C10.996 47.1972 11.6335 46.5597 12.4143 46.5597C13.1952 46.5597 13.8327 47.1972 13.8327 47.9781V73.8745C13.8327 77.6912 10.7331 80.7908 6.91634 80.7908C3.0996 80.7908 0 77.6912 0 73.8745V40.0577C0 34.1534 5.01992 29.3486 11.1952 29.3486H42.8048C48.9801 29.3486 54 34.1534 54 40.0577V73.8745C54 77.6912 50.9004 80.7908 47.0837 80.7908Z" fill="#95805A"></path><defs><linearGradient id="paint0_linear_31_511" x1="14.4193" y1="15.5482" x2="39.6238" y2="15.5482" gradientUnits="userSpaceOnUse"><stop stop-color="#AA8017"></stop><stop offset="1" stop-color="#7F5501"></stop></linearGradient></defs></svg>